<?xml version="1.0" standalone="no"?>
<!DOCTYPE svg PUBLIC "-//W3C//DTD SVG 20010904//EN"
 "http://www.w3.org/TR/2001/REC-SVG-20010904/DTD/svg10.dtd">
<svg version="1.0" xmlns="http://www.w3.org/2000/svg"
 width="192.000000pt" height="192.000000pt" viewBox="0 0 192.000000 192.000000"
 preserveAspectRatio="xMidYMid meet">
<metadata>
Created by potrace 1.14, written by Peter Selinger 2001-2017
</metadata>
<g transform="translate(0.000000,192.000000) scale(0.100000,-0.100000)"
fill="#000000" stroke="none">
<path d="M1494 1641 c-38 -36 -131 -132 -206 -211 -76 -80 -156 -158 -178
-174 l-41 -28 36 -35 c62 -60 34 -45 -34 19 l-65 60 -29 -34 c-16 -18 -75 -82
-130 -142 -56 -59 -117 -125 -136 -145 -18 -20 -63 -68 -100 -106 -36 -39
-115 -124 -176 -189 -60 -65 -144 -155 -186 -199 -71 -75 -76 -83 -68 -110 18
-64 121 -157 174 -157 13 0 48 30 95 81 110 118 141 152 259 278 58 62 122
130 141 151 19 21 83 89 141 151 59 63 132 141 162 174 l57 60 -33 27 c-17 14
-29 30 -24 34 4 4 7 4 7 0 0 -4 21 23 46 61 26 37 50 70 53 73 3 3 28 30 55
60 27 30 81 89 121 130 124 131 167 187 160 209 -11 37 -32 29 -101 -38z"/>
<path d="M465 1197 c9 -39 26 -73 59 -112 29 -35 43 -28 50 26 5 45 -25 97
-63 105 -14 3 -32 8 -39 10 -10 3 -12 -4 -7 -29z"/>
<path d="M387 1169 c-8 -18 -14 -37 -12 -43 2 -6 6 -23 9 -37 7 -31 48 -61 88
-64 35 -3 35 2 -3 43 -17 18 -39 55 -48 83 l-18 50 -16 -32z"/>
</g>
</svg>
