<?xml version="1.0" encoding="utf-8"?>
<svg 
className="fill-current h-8 w-8 mr-2"
          width="54"
          height="54"
          viewBox="0 0 54 54"
          xmlns="http://www.w3.org/2000/svg"
>
  <g class="" transform="matrix(0.08913, 0, 0, 0.08913, -73.850121, -46.088703)" fill="#200" style="">
    <path d="M 649.053 438.558 Z M 980.353 736.598 C 977.739 736.475 975.119 736.673 972.553 737.188 C 976.453 758.438 986.353 775.668 1002.853 789.668 C 1011.921 779.366 1013.41 764.427 1006.553 752.538 C 1001.1 743.113 991.229 737.108 980.353 736.598 Z M 956.253 745.948 C 946.011 756.185 943.919 772.024 951.153 784.568 C 958.398 797.109 973.164 803.221 987.153 799.468 C 971.653 784.768 961.253 766.678 956.253 745.948 Z Z" fill="#8c1d17"></path>
    <path d="M 1757.718 1179.243 L 1484.318 1452.653 L 1545.118 1513.453 L 1818.518 1240.043 C 1818.518 1215.723 1782.018 1179.243 1757.718 1179.243 Z" fill="rgb(251, 191, 36)" data-bx-origin="-0.393521 -0.194048" transform="matrix(-0.999391, 0.0349, -0.0349, -0.999391, 2743.674692, 2180.888826)"></path>
    <path d="M 1768.03 1168.631 Z M 1496.33 1214.671 Z M 1472.23 1224.021 Z M 1498.63 1471.241 C 1461.13 1528.741 1395.29 1578.341 1353.889 1630.141 C 1349.069 1636.041 1361.489 1648.341 1367.419 1643.641 C 1419.15 1602.241 1468.73 1536.341 1526.23 1498.841 Z" fill="#204b76" data-bx-origin="0.000001 -0.11394" transform="matrix(-0.999391, 0.0349, -0.0349, -0.999391, 2743.672407, 2180.88634)"></path>
  </g>
</svg>